<svg xmlns="http://www.w3.org/2000/svg" xmlns:xlink="http://www.w3.org/1999/xlink">
    <symbol viewBox="0 0 200 200" id="logo-adelaide">
        <g fill="none" fill-rule="evenodd">
            <path fill="#002B5C" d="M99.625 149.444c-1.242-.123-3.136.065-3.136.065 1.64-1.084 2.093-1.195 2.19-1.203-3.044.044-4.717.672-4.717.672a19.438 19.438 0 012.85-2.1l-20.319.003.526-1.178s-1.832 1.151-3.57 1.151l-36.65.007 10.18-14.59-3.755.76 3.53-3.855-5.974 1.467s6.929-8.297 15.239-8.207c1.845.02 15.655 0 21.126 0 7.136 0 7.48 1.622 7.494 1.848-.019-1.705-1.88-1.86-1.88-1.86h29.937l2.001.012h35.905l24.657 2.848-6.565 21.584-9.466.002-1.893 2.562s.219.543-.324 3.367-3.903 5.7-8.248 5.689c-6.72-.016-34.433 0-43.981 0-8.244 0-6.032-6.917-5.157-9.044" />
            <path fill="#FFD200" d="M111.632 145.729l-1.424 4.14c-.442-.594-1.082-1.102-2.017-1.104-1.234-.003-2.593.932-3.034 2.115-.448 1.196.278 2.12 1.512 2.123.95.003 1.848-.385 2.743-1.002l-1.638 4.064c-.776.301-2.36.427-3.1.426-3.24-.008-4.871-2.42-3.715-5.52.362-.965.942-1.872 1.67-2.666a59.07 59.07 0 00-2.748.188c2.066-1.228 3.228-1.414 3.673-1.434-3.027-.07-4.642.424-4.642.424 4.088-1.974 7.662-2.78 11.165-2.137.554.074 1.08.203 1.555.383m-8.078 1.33l.21.005s-.068-.01-.21-.005" />
            <path fill="#002B5C" d="M9.21 62.104s85.082-58.763 148.334 22.24c0 0 35.095 22.444 19.588 52.642l-3.264-9.386s-14.283-.204-32.443-7.346c-18.158-7.14-33.461-1.224-33.461-1.224s.408-4.08 3.877-7.14c0 0-16.324 6.12-18.363 11.017 0 0 .814-8.57 4.692-13.057 0 0-9.386 2.242-17.752 7.956 0 0 1.837-8.977 10.407-14.486 0 0-18.567.203-37.134 10.201 0 0 13.26-24.687 33.869-32.85 0 0-16.934-5.508-39.787-2.652 0 0 10.815-12.242 27.954-14.487 0 0-37.747-7.55-66.517-1.428" />
            <path fill="#E31937" d="M55.678 125.015h.655l1.286.007 6.532.005.797 11.932 3.193-10.38c.06-.336.079-.701-.046-.973-.26-.575-.88-.609-.88-.609l3.373.033 5.296.003c5.955.001 9.964 2.254 9.117 7.761l1.9-6.167c.066-.343.09-.73-.037-1.01-.26-.578-.882-.61-.882-.61l3.376.03 11.237.004-1.574 5.116-6.017-.004-.55 1.788 5.494.003-1.494 4.868-5.496-.004-.566 1.837 6.227.004-1.575 5.114-13.412-.006 2.269-7.377c-2.164 4.564-6.864 7.375-12.004 7.373l-6.497-.001h-2.543l-5.01-.004.066-2.334-5.391-.002-1.29 2.33h-7.556l8.565-12.738.03-.065c.31-.632.479-1.153.534-1.582-1.902-.116-4.617.882-4.617.882a19.553 19.553 0 014.11-2.299c-1.535-1.098-5.902.507-5.902.507 2.888-2.09 6.096-3.432 9.282-3.432zm21.755 9.627c.81-2.632-.434-3.75-3.04-3.751h-.442l-2.23 7.249.442.001c2.374.002 4.517-1.042 5.27-3.499zm-22.269 2.324l2.865.002.183-3.302c.034-.795.158-1.615.273-2.41l-3.32 5.71zm58.81-5.723l.147-.304c.308-.632.476-1.153.53-1.582-1.9-.116-4.614.882-4.614.882a19.52 19.52 0 014.11-2.299c-1.536-1.098-5.903.507-5.903.507 3.346-2.463 6.61-3.432 11.144-3.432 3.187 0 1.67.007 1.67.007h4.988l1.05 16.025 4.917-15.993 7.026.003h3.204l5.258.005c5.556 0 9.421 1.965 9.222 6.708l1.32-4.294.22-.675c.09-.379.14-.833-.006-1.156-.262-.575-.882-.608-.882-.608l3.372.03 11.252.004-1.572 5.115-6.016-.002-.551 1.786 5.495.004-1.494 4.868h-5.497l-.565 1.833 6.224.004-1.571 5.114-13.416-.005 1.959-6.395c-2.34 3.984-6.722 6.395-11.484 6.39l-9.038-.006 5.356-17.414c.027-.261.014-.52-.08-.725a1.005 1.005 0 00-.61-.548l-5.747 18.691-6.114-.004-1.022-.001-6.531-.003.066-2.332-5.392-.004-1.292 2.333h-7.551l-10.123-.007 5.76-18.722 7.137.002-3.91 12.713 5.174.003 4.38-6.516zm35.076 3.43c.81-2.632-.437-3.753-3.04-3.75l-.403-.008-2.27 7.255.442.002c2.372.001 4.515-1.041 5.271-3.5zm-32.006 2.321h2.863l.18-3.303c.038-.792.16-1.613.272-2.408l-3.315 5.711z" />
            <path fill="#004B8D" d="M32.72 55.23s73.897-33.606 121.236 32.524c0 0 28.908 20.417 22.946 38.665 0 0-.722-4.335-2.167-8.131-1.446-3.794-23.127-21.861-44.99-25.656l3.433 10.478.723-6.323s10.84 14.456 36.678 24.575c0 0-1.988 3.61-19.151-2.351-17.166-5.962-23.85-8.492-31.8-7.227 0 0 5.78-4.698 14.453-3.434 0 0-10.117-5.058-29.993 1.808 0 0 5.24-5.603 11.564-6.325 0 0-8.853-2.348-26.199 5.962 0 0 9.758-9.576 18.79-10.84 0 0-20.597-3.613-42.097 4.518 0 0 7.95-14.636 36.858-24.934 0 0-19.332-6.144-43.905-5.06 0 0 15.718-9.395 33.787-8.31 0 0-20.236-12.647-60.167-9.938" />
            <path fill="#004B8D" d="M116.413 58.83c.555.196-12.655-8.562-30.149-9.864-17.492-1.302-37.592 2.048-37.592 2.048s34.987-3.722 67.74 7.816" />
            <path fill="#33619E" d="M175.405 113.728s-7.071-12.097-15.072-18.61l-8.004-6.512.93 4.651s13.4 10.05 22.146 20.47M116.413 58.83c.555.196-12.655-8.562-30.149-9.864-17.492-1.302-37.592 2.048-37.592 2.048s34.987-3.722 67.74 7.816M77.627 69.146c1.256-.472 14.356-6.262 29.572.983 0 0-13.368-2.784-29.572-.983" />
            <path fill="#FFD200" d="M132.827 74.252c-.168.057-6.186 2.528-3.794 7.311 2.094 4.188 9.941 3.102 10.312-2.323" />
            <path fill="#002B5C" d="M134.782 75.48s-9.653-1.736-15.564-1.79c0 0 7.347 2.06 9.294 5.128 0 0 .522-4.694 6.27-3.339m5.695 4.061s1.164 3.534-1.22 5.27c-2.387 1.736-9.951 3.353-11.307-4.4 0 0 2.533 5.31 8.173 3.196 5.64-2.114.162-8.003.162-8.003l4.192 3.938z" />
            <path fill="#002B5C" d="M136.924 77.086l-2.79-3.348-2.279 3.254s-1.139 1.463-.164 2.766c.978 1.302 1.951 2.115 4.07 1.139 2.113-.978 1.163-3.81 1.163-3.81" />
            <path fill="#E31937" d="M133.671 74.809c-.123.04-4.393 1.79-2.724 5.246 1.666 3.458 6.833 2.199 7.401-1.666.568-3.864-.849-1.082-.849-1.082s-1.473 4.855-4.417 3.04c-2.615-1.613-.061-4.969 2.094-4.4 2.156.572-1.505-1.138-1.505-1.138" />
            <path fill="#002B5C" d="M144.94 86.802s1.165-14.382-26.372-18.867c0 0 20.422 9.479 26.372 18.867" />
            <path fill="#FFD200" d="M116.497 149.375c-.302.807-1.017.908-1.694.906h-.287l.689-1.846.316.001c.707.001 1.289.103.976.94m4.085-.12c1.023-2.739-.759-3.783-3.32-3.788l-4.22-.01-1.368-.015s.24-.007.335.238c.062.163.01.42-.043.605l-3.747 10.039 4.037.01 1.302-3.488h.076l.506 3.491 4.759.012-1.151-3.536c-.109-.32-.3-.492-.45-.652l.03-.086c1.72-.486 2.642-1.178 3.254-2.82" />
            <path fill="#FFD200" d="M126.637 148.894c1.31.004 1.765.97 1.334 2.125-.463 1.24-1.654 2.088-2.904 2.086-1.25-.003-1.807-.857-1.345-2.096.432-1.153 1.606-2.118 2.915-2.115m1.336-3.573c-3.45-.008-7.112 2.204-8.386 5.62-1.303 3.49.734 5.585 4.199 5.594 3.465.007 7.062-2.077 8.364-5.565 1.276-3.418-.73-5.642-4.177-5.65" />
            <path fill="#FFD200" d="M132.144 145.501l-.081 10.88 3.51.006 2.68-4.272c.337-.533.627-1.07.881-1.634h.136l-.91 5.914 3.6.007 8.092-10.891-4.29-.022-2.882 4.611c-.381.619-.705 1.282-1.001 1.917h-.092l.88-6.514-3.15-.007-2.902 4.503c-.422.65-.77 1.34-1.094 2.003l-.09-.001.99-6.505-4.277.005z" />
            <path fill="#FFD200" d="M144.542 155.586c1.05.624 2.566 1.002 3.998 1.004 2.455.007 5.405-1.27 6.374-3.866.688-1.845-.245-2.74-1.851-3.12l-.86-.204c-.289-.073-.779-.133-.629-.535.168-.447.743-.577 1.105-.575.887.002 1.552.365 2.088.826l2.154-2.779c-.873-.651-1.95-.954-3.246-.958-2.47-.007-5.464 1.429-6.428 4.009-.635 1.7.383 2.613 1.893 2.89l.773.147c.351.071.877.118.694.607-.183.49-.89.649-1.297.647-.95-.002-1.67-.451-2.204-1.001l-.152-.158-2.412 3.066zm-25.058-25.457s-3.489 6.046-3.827 6.606c-.24.402-.543 1.63 1.032 1.63h4.007l-.803-1.085h-3.454l3.702-6.281-.657-.87zm25.043-.011l.745.66-2.336 7.642s.96.298 4.012-.512c0 0-5.96 3.096-4.942-.14.974-3.085 1.178-3.746 2.52-7.65m18.805-1.328s-.874 2.903-.992 3.311c-.08.28-.346 1.076.862 1.076h4.484l-.742 2.573.703.848 1.304-4.314h-5.51l.736-2.416-.845-1.078zm-2.1 6.771s-.837 2.84-.955 3.246c-.082.281-.346 1.076.862 1.076h5.198l-.742 2.575.652.846 1.303-4.312h-6.174l.702-2.353-.846-1.078zm-41.715-10.165l6.076-.003s1.098 16.439 1.11 16.546c.032.339.32.651.681.687 0 0-1.787.508-1.932-1.447-.145-1.957-.87-14.771-.87-14.771l-5.701.006.636-1.018zm-18.12.001l.492 1.01h4.363s-3.447 10.846-3.608 11.334c-.165.488.234 1.521 1.265 1.521h5.866l-.67-1.049h-5.268l3.95-12.816h-6.39z" />
            <path fill="#FFE694" d="M112.241 145.584l.331.482s3.81.008 5.473.007c1.439 0 2.888 1.478 2.03 3.625 0 0 .991-1.453.48-2.66-.483-1.141-1.567-1.37-2.474-1.408-1.08-.045-5.84-.046-5.84-.046m-2.095 3.812l-.446-.835.857-2.382s-1.485-.422-4.038-.21c-2.933.24-5.934 1.018-5.934 1.018s5.457-2.778 10.77-1.125l-1.209 3.534zm-5.136.132s-1.187 1.675-.744 2.943c.447 1.266 2.472 1.583 3.9.92l-1.105 2.622.604-.149 1.34-3.414s-1.174.877-2.51.74c-1.337-.138-2.272-1.23-1.348-2.772l-.136-.89z" />
            <path fill="#FFE694" d="M102.748 147.504c-.217 0-1.48.578-1.48.578s1.72-.265 2.66-.265" />
            <path fill="#FFD200" d="M114.982 128.091c-.37 0-2.287 1.05-2.287 1.05s2.658-.618 4.265-.618" />
            <path fill="#FFE694" d="M113.434 152.595l-.275-.751-1.384 3.747.376.526zm3.178-.643l1.333 3.776.75.475s-1.092-3.3-1.186-3.517c-.177-.408-.897-.734-.897-.734m-1.889-4.26s-.88 2.234-.88 2.608c0 .375.031.603.925.6a1.73 1.73 0 001.207-.514s-1.232.15-1.657 0l.74-2.173-.335-.52zm9.485 1.234s-1.81 1.34-1.52 3.332c.289 1.992 2.39 1.629 4.273.904 0 0-1.522.109-2.03.073-.505-.036-1.964-.248-1.483-2.173.109-.434.67-1.085.67-1.085l.09-1.05zm-1.287-1.861s1.485-1.23 3.403-1.483c1.92-.255 4.816-.292 6.01 2.135l-.651.146s-1.195-1.92-4.382-1.92c-3.186 0-4.38 1.122-4.38 1.122m9.326-1.473l.196.474 3.192.007s-.906 5.977-.914 6.314c-.024.855.863-.259.863-.259s-.398.313-.275-.367c.048-.266.956-6.177.956-6.177l-4.018.008zm7.332 0l.17.474 2.13.007s-.79 5.977-.8 6.314c-.022.855.864-.259.864-.259s-.398.313-.276-.367c.048-.266.843-6.177.843-6.177l-2.931.008zm-4.061 10.632l-.303-.564 3.596-5.799.272.489zm6.371-.037l-.236-.37 5.657-7.632-.068.839zm3.941-10.595l4.042-.005s-1.43 1.662-1.13 1.694c.303.035.694-.151.694-.151s-1.47.869-1.203.096c.269-.77.727-1.172.727-1.172l-2.838.007-.292-.47zm3.999 1.221s.75-.816 2.667-1.187c1.685-.327 3.551.257 4.142.779l-1.833 2.399-.191-.643 1.143-1.518s-2.237-1.34-5.928.17m1.284 1.784s-.758.716.054 1.075c.772.34 1.42.505 2.261.735 1.322.364 1.466 2.23-.646 4.478 0 0 1.523-.63 2.063-2.58.44-1.585-.732-2.253-1.765-2.498-.698-.165-1.913-.367-1.698-.842l-.269-.368z" />
            <path fill="#FFD200" d="M132.209 125.396h6.514l-5.58 17.894-.935-.804 4.919-16.082-4.544-.008z" />
            <path fill="#FFF" d="M134.802 77.276s-1.682.677-1.74 1.7c0 0-.883-1.391.6-2.512l1.14.812z" />
            <path fill="#FFD200" d="M110.942 127.27s2.955-1.874 8.573-1.874l.763 1.024s-6.24-.127-9.336.85m-53.477 2.859s-3.49 6.046-3.828 6.606c-.24.402-.542 1.63 1.033 1.63h4.006l-.802-1.085h-3.455l3.702-6.281-.656-.87zm.031-4.733l6.076-.003s1.099 16.439 1.108 16.546c.035.339.32.651.682.687 0 0-1.785.508-1.93-1.447-.145-1.957-.87-14.771-.87-14.771l-5.702.006.636-1.018zm-4.533 2.695c-.371 0-2.288 1.05-2.288 1.05s2.659-.618 4.266-.618" />
            <path fill="#FFD200" d="M48.923 127.27s2.954-1.874 8.573-1.874l.763 1.024s-6.241-.127-9.336.85m109.643-1.88c.16.17.31.477.232 1.007h11.441l-.802 2.502.77 1.044 1.402-4.554h-13.043zm-66.746 3.4s-.874 2.903-.992 3.311c-.08.28-.346 1.076.862 1.076h4.484l-.742 2.573.703.848 1.304-4.314h-5.51l.736-2.416-.845-1.078zm-2.1 6.771s-.838 2.84-.955 3.246c-.082.281-.346 1.076.862 1.076h5.198l-.742 2.575.652.846 1.303-4.312h-6.173l.7-2.353-.845-1.078zm-2.665-10.171c.16.17.309.477.233 1.007h11.44l-.802 2.502.769 1.044 1.402-4.554H87.055zm68.753 3.527c-1.408-2.835-4.777-3.521-7.718-3.521h-8.17c.162.164.325.47.252 1.008h8.578c3.801 0 7.718 2.354 6.946 8.42 0 0 1.216-3.685.112-5.907m-82.88 1.144l.746.66-2.336 7.644s.96.296 4.012-.513c0 0-5.96 3.095-4.942-.14.973-3.086 1.177-3.747 2.52-7.65m11.282-1.202c-1.407-2.835-4.777-3.52-7.718-3.52H68.32c.164.165.327.47.254 1.008h8.576c3.803 0 7.72 2.353 6.947 8.42 0 0 1.216-3.686.113-5.908" />
        </g>
    </symbol>
    <symbol viewBox="0 0 200 200" id="logo-brisbane">
        <g fill="none" fill-rule="evenodd">
            <path fill="#8B0042" d="M37.896 67.898V46.55c0-2.385 0-4.085-1.897-5.786h13.032c-1.85 1.7-1.896 3.401-1.896 5.786v21.59c1.8.584 3.5.875 5.3.875 2.43 0 4.474-.73 6.662-2.235l-1.75 6.952H36c1.85-1.75 1.897-3.502 1.897-5.834m34.273 5.834H59.138c1.847-1.75 1.896-3.502 1.896-5.835V46.552c0-2.384 0-4.086-1.896-5.787h13.03c-1.846 1.7-1.894 3.403-1.894 5.787v21.345c0 2.333.048 4.085 1.894 5.835m19.252-4.035c5.106 0 8.557-3.892 8.557-10.942 0-8.364-3.79-13.518-9.14-13.518-5.009 0-8.512 3.892-8.512 10.892 0 8.412 3.794 13.568 9.096 13.568m-18.917-12.5c0-4.52 2.09-9.139 5.885-12.543 3.404-3.014 7.877-4.67 12.737-4.67 11.042 0 18.673 7.15 18.673 17.265 0 4.52-2.09 9.237-5.882 12.592-3.405 3.064-7.878 4.67-12.79 4.67-10.94 0-18.623-7.246-18.623-17.314" />
            <path fill="#8B0042" d="M111.968 65.465v-17.7c0-2.331-.049-4.23-2.626-7h10.161l14.977 20.178v-13.03c0-2.237-.192-4.378-2.333-7.148h9.433c-1.797 2.965-1.945 5.152-1.945 7.294v26.5c-7.149-.827-9.529-4.231-12.546-8.17l-9.967-12.982v14.004c0 2.527.195 4.376 2.188 6.32h-9.63c2.288-2.48 2.288-4.813 2.288-8.266m39.872 3.696c3.111 0 5.007-1.604 5.008-3.647 0-3.112-3.403-3.986-8.024-6.369-4.57-2.335-6.952-5.69-6.952-9.58 0-5.592 4.523-9.58 12.107-9.58 2.82 0 5.448.537 8.268 1.556v5.544c-2.773-1.41-5.01-2.236-6.859-2.236-2.626 0-4.325 1.458-4.325 3.209 0 2.723 3.5 3.695 9.19 6.81 3.794 2.088 5.542 4.957 5.542 8.944 0 6.177-5.106 10.454-12.981 10.454-3.26 0-6.419-.632-9.777-1.75l-1.7-7.002c3.84 2.335 7.098 3.647 10.503 3.647" />
            <path fill="#0055A3" d="M63.726 35.196c.977 0 1.645-.765 1.645-1.808 0-1.172-.668-1.904-1.661-1.904-.147 0-.36.033-.635.065v3.582c.309.048.52.065.65.065m-.21-5.226c.7 0 1.139-.488 1.139-1.318 0-.7-.44-1.238-1.107-1.238-.082 0-.244.015-.472.049v2.475c.195.032.342.032.44.032m-3.567 4.867V27.69c0-.798-.016-1.368-.633-1.937h4.102c2.767 0 4.167.976 4.167 2.605 0 .961-.57 1.726-1.66 2.197 1.481.44 2.262 1.417 2.262 2.882 0 .863-.31 1.661-.878 2.278-.847.897-1.823 1.076-3.24 1.076h-4.753c.617-.585.633-1.17.633-1.954m16.058-5.779c0-1.009-.587-1.645-1.563-1.645-.081 0-.162 0-.244.017v3.76c1.188-.31 1.807-1.058 1.807-2.132zm-5.535 7.733c.618-.586.635-1.171.635-1.954V27.69c0-.797 0-1.367-.635-1.938h4.298c2.849 0 4.282.962 4.282 2.947 0 1.19-.652 2.036-2.02 2.686l2.003 3.42c.31.52.781 1.14 1.466 1.84l-1.841.179c-.146.016-.293.016-.439.016-1.22 0-1.873-.603-2.59-1.987l-1.43-2.799v2.783c0 .783.015 1.368.634 1.954H70.47zm15.629 0h-4.363c.618-.585.634-1.17.634-1.955V27.69c0-.798 0-1.368-.634-1.937H86.1c-.619.57-.635 1.139-.635 1.937v7.146c0 .784.016 1.37.635 1.955m5.73-1.53c1.043 0 1.677-.538 1.677-1.221 0-1.041-1.139-1.335-2.686-2.133-1.53-.781-2.328-1.904-2.328-3.208 0-1.871 1.515-3.206 4.054-3.206.943 0 1.823.179 2.767.52v1.856c-.927-.472-1.677-.748-2.295-.748-.879 0-1.448.487-1.448 1.074 0 .912 1.172 1.237 3.075 2.28 1.27.7 1.857 1.66 1.857 2.994 0 2.068-1.71 3.5-4.345 3.5-1.093 0-2.15-.211-3.273-.585l-.571-2.344c1.286.781 2.377 1.221 3.516 1.221m11.06-.065c.977 0 1.645-.765 1.645-1.808 0-1.172-.668-1.904-1.661-1.904-.147 0-.358.033-.635.065v3.582c.31.048.52.065.65.065m-.211-5.226c.7 0 1.14-.488 1.14-1.318 0-.7-.44-1.238-1.106-1.238a3.78 3.78 0 00-.473.049v2.475c.195.032.342.032.439.032m-3.566 4.867V27.69c0-.798-.016-1.368-.634-1.937h4.103c2.767 0 4.168.976 4.168 2.605 0 .961-.57 1.726-1.66 2.197 1.481.44 2.261 1.417 2.261 2.882 0 .863-.308 1.661-.878 2.278-.847.897-1.822 1.076-3.24 1.076h-4.754c.618-.585.634-1.172.634-1.954m15.39-2.865l-1.123-3.402-1.139 3.402h2.262zm-5.193 3.174l2.59-7.407c.096-.292.243-.57.243-.927 0-.375-.195-.667-.538-1.06h3.908l3.127 9.054c.276.781.699 1.48 1.22 1.985h-4.786c.374-.424.586-.7.586-1.14 0-.227-.032-.423-.081-.553l-.555-1.58h-3.32l-.521 1.515c-.082.26-.147.472-.147.667 0 .39.179.75.522 1.091h-3.24c.44-.52.78-1.041.992-1.645zm12.211-1.123v-5.926c0-.78-.016-1.416-.88-2.344h3.403l5.015 6.756v-4.363c0-.748-.065-1.465-.782-2.393h3.158c-.601.993-.65 1.727-.65 2.442v8.873c-2.394-.277-3.192-1.417-4.2-2.735l-3.34-4.347v4.689c0 .846.067 1.465.734 2.116h-3.222c.764-.83.764-1.612.764-2.768m12.878.814V27.69c0-.798 0-1.367-.635-1.937h6.462v2.296c-.552-.52-.96-.635-1.578-.635h-1.124v2.751h2.117v2.117c-.26-.36-.668-.554-1.188-.554h-.929v3.32a6.2 6.2 0 001.222.148c1.107 0 1.953-.195 2.768-.815l-.586 2.41h-7.164c.619-.586.635-1.171.635-1.954" />
            <path fill="#EDC157" d="M97.993 63.748s-8.64-1.108-17.543 2.465c0 0 1.184 1.315 1.035 2.192 0 0-12.338 2.718-16.82 10.403 0 0 1.773.146 2.217 1.315 0 0-9.46 6.136-9.755 12.419 0 0 3.547 1.022 1.625 2.63-1.922 1.608-8.13 4.237-8.424 7.891 0 0 3.824-.227 2.808 3.36-.35 1.236-1.104 4.354-1.104 8.615 0 35.63 48.981 60.421 48.981 60.421s49.035-24.792 49.035-60.42c-.011-.859-.236-8.458-2.612-12.562 0 0 .792-.538 1.626-.439 0 0-.348-3.74-4.548-8.367-1.881-2.071-2.456-5.691.112-5.95 0 0-.291-2.235-5.27-3.047-1.204-.196-1.35-.147-2.06-1.317-.648-1.068-1.11-3.532-.29-5.092 0 0-1.93-.79-3.362.022 0 0-4.093-8.977-9.118-10.291 0 0-.074.852-.85 1.343 0 0-6.357-7.24-12.552-7.468 0 0 .056 1.138-.52 1.946 0 0-6.841-2.073-12.754-1.854 0 0 .54 1.046.143 1.785" />
            <path fill="#8B0042" d="M66.154 95.724s-2.015 1.006-5.155 1.222c0 0 1.99 1.56 5.563 1.51 0 0-.313-1.39-.408-2.732" />
            <path fill="#8B0042" d="M148.403 117.27c-1.714-15.576-9.25-21.959-9.25-21.959 3.316-.258 5.91 2.432 5.91 2.432-5.339-10.367-10.85-12.614-13.215-13.095 3.388 2.106 5.743 7.48 2.686 17.214-3.151-5.435-6.296-6.887-6.296-6.887 1.702-.964 4.371.518 4.371.518-2.074-5.037-7.187-4.889-7.187-4.889 2.149-1.926 5.705-.593 5.705-.593-4.19-4.082-10.813-2.365-10.813-2.365s3.359-4.313 8.234-4.047a6.89 6.89 0 012.208.494c.801-2.836 3.63-3.674 3.63-3.674-4.744-1.407-10.332 2.222-10.332 2.222 2.256-5.187 1.665-10.222 1.665-10.222-3.702 9.878-8.657 14.218-8.657 14.218 4.523-8.871-.775-20.236-.775-20.236 1.823 11.868-4.051 18.222-4.051 18.222 1.03-14.29-5.203-18.725-5.203-18.725 4.698 7.241.79 17.647.79 17.647-2.78-14.459-14.745-17.312-14.745-17.312 11.75 7.168 9.999 21.508 9.999 21.508-2.206-11.701-11.485-16.448-11.485-16.448 5.61 5.322 6.45 14.336 6.45 14.336-8.559-17.286-23.76-12.947-23.76-12.947 14.457 1.32 17.813 13.068 17.813 13.068-8.895-11.676-21.074-8.105-21.074-8.105 9.23.576 12.779 7.53 12.779 7.53-11.82-9.064-22.273 2.542-22.273 2.542 3.344-1.11 4.627.743 4.627.743C62.534 90.138 61 92.943 61 92.943c3.356-1.008 5.082-.336 5.082-.336.025-.888.575-7.192 5.754-8.704 5.714-1.666 9.83 3.765 9.83 3.765-7.433-1.582-10.74 2.35-10.74 2.35 3.98-1.319 5.633.623 5.633.623-5.682.216-7.162 4.852-7.162 4.852 3.045-1.511 4.382-.489 4.382-.489-7.877 7.913-17.28 5.192-17.28 5.192 7.198 4.698 16.065 2.168 16.065 2.168-7.5 5.528-17.138 3.794-17.138 3.794 9.648 5.522 15.092 3.24 15.092 3.24-3.884 5.58-15.729 5.243-15.729 5.243 7.337 4.747 15.729 2.109 15.729 2.109-2.219 3.37-6.906 3.837-6.906 3.837 4.82 2.193 8.057 1.15 8.057 1.15-3.788 3.728-12.17 2.127-12.17 2.127 6.486 5.282 15.047 3.34 15.047 3.34-8.692 6.078-17.936.583-17.936.583 6.571 7.017 18.518 6.372 18.518 6.372-4.574 3.163-10.185 1.925-10.185 1.925 4.652 3.863 8.323 3.683 8.323 3.683-5.179 2.238-11.544-.46-11.544-.46 5.428 6.67 15.443 6.332 15.443 6.332-3.243 2.16-9.11 1-9.11 1 8.373 5.631 15.665 4.333 15.665 4.333-6.597 2.618-11.666 1-11.666 1 8.473 4.542 13.594 4.112 13.594 4.112-2.963 2.217-5.745 1.435-5.745 1.435s5.911 4.76 9.995 7.792c7.112 4.857 11.118 6.935 11.118 6.935 22.376-12.66 20.777-19.5 20.777-19.5 1.664 1.471 2.12 3.559 2.12 3.559 7.79-6.468 8.654-15.34 8.654-15.34 1.87 3.527-.158 8.758-.158 8.758 9.004-9.835 5.83-19.586 5.83-19.586 2.685.958 3.07 7.272 3.07 7.272 9.255-15.992.585-28.486.585-28.486 3.116.97 6.509 8.347 6.509 8.347" />
            <path fill="#69003D" d="M148.403 117.27c-1.714-15.576-9.25-21.959-9.25-21.959 3.316-.258 5.91 2.432 5.91 2.432-5.339-10.367-10.85-12.614-13.215-13.095 3.388 2.106 5.743 7.48 2.686 17.214-3.151-5.435-6.296-6.887-6.296-6.887 1.702-.964 4.371.518 4.371.518-2.074-5.037-7.187-4.889-7.187-4.889 2.149-1.926 5.705-.593 5.705-.593-4.19-4.082-10.813-2.365-10.813-2.365-1.056.195-1.408.285-1.408.285s-5.323-.743-10.693 1.08c-6.339 2.15-6.814 9.135-7.207 9.135-.39 0-.887-6.984-7.226-9.135-5.37-1.823-10.693-1.08-10.693-1.08s3.27.727 3.21 1.835c-.038.699-1.17.899-2.395 1.163-.616.132-3.093.743-4.333 2.03 0 0 2.819-.442 3.187.351.453.967-2.808 2.661-6.677 4.068 0 0 1.731-.102 2.16.863.562 1.27-.803 2.918-1.35 3.693-5.86 8.295-3.685 15.138-.933 19.935 1.865 3.249 7.562 12.348 7.562 12.348s-1.096 2.175-.852 5.135c.32 3.9.32 5.722 2.093 7.8.626.733 2.159 2.78 1.967 4.795-.252 2.641.575 5.227 3.404 7.192 0 0 .382-.957 1.103-1.15 0 0 .776 1.28 3.693 2.83 3.665 1.947 5.794 3.926 6.029 11.396l.06.031c22.377-12.66 20.778-19.5 20.778-19.5 1.664 1.471 2.12 3.559 2.12 3.559 7.79-6.468 8.654-15.34 8.654-15.34 1.87 3.527-.158 8.758-.158 8.758 9.004-9.835 5.83-19.586 5.83-19.586 2.685.958 3.07 7.272 3.07 7.272 9.255-15.992.585-28.486.585-28.486 3.116.97 6.509 8.347 6.509 8.347" />
            <path fill="#EDC157" d="M128.534 115.289c.677-3.653.149-8.85-3.394-13.355a396.577 396.577 0 00-4.207-5.094c-.875-1.044-2.282-2.371-2.013-3.157.452-1.308 3.503-.724 3.503-.724-1.1-1.262-3.348-1.742-4.332-2.03-1.061-.312-2.358-.464-2.395-1.163-.06-1.108 3.21-1.835 3.21-1.835s-5.323-.743-10.693 1.08c-6.34 2.15-6.815 9.135-7.206 9.135-.39 0-.888-6.984-7.228-9.135-5.37-1.823-10.692-1.08-10.692-1.08s3.269.727 3.209 1.835c-.036.699-1.17.899-2.395 1.162-.616.133-3.092.744-4.33 2.03 0 0 2.816-.441 3.186.352.452.967-2.81 2.662-6.677 4.069 0 0 1.73-.104 2.158.862.564 1.27-.803 2.918-1.35 3.693-5.86 8.295-3.685 15.138-.931 19.935 1.865 3.249 7.56 12.348 7.56 12.348 1.224-2.518 3.43-3.01 3.43-3.01-1.472.894-2.259 2.321-2.67 3.75a25.462 25.462 0 019.618.843c.224.064.575.36.43.828-.144.473-.622.478-.821.413a25.048 25.048 0 00-7.824-1.245 25.02 25.02 0 00-10.356 2.228l.08.23a24.26 24.26 0 018.589-1.973 12.647 12.647 0 00-.134 1.581 22.676 22.676 0 019.026.604c.228.064.573.351.453.8-.121.464-.615.523-.802.464a22.194 22.194 0 00-6.856-1.081c-3.365 0-6.556.751-9.418 2.093l.076.222a21.443 21.443 0 017.547-1.824c.023.328.125 1.155.19 1.557l-.01.002a19.693 19.693 0 017.8.432c.238.062.594.329.476.779-.136.52-.625.531-.821.47a19.432 19.432 0 00-14.317 1.09l.077.219a18.583 18.583 0 017.016-1.706c.113.612.217 1.161.269 1.47.483 2.852 3.368 3.803 5.355 2.86.143-.068 7.204-3.436 7.434-3.54a6.34 6.34 0 003.66-4.97 6.343 6.343 0 003.66 4.97c.231.104 7.292 3.472 7.435 3.54 1.987.943 4.872-.008 5.355-2.86.064-.383.162-.9.262-1.47 2.499.11 4.87.708 7.022 1.706l.077-.219a19.338 19.338 0 00-8.472-1.972c-2.04-.005-4.01.307-5.86.887-.192.06-.645.032-.798-.429-.145-.437.213-.759.44-.818a19.646 19.646 0 017.806-.443c.015-.095.155-.95.207-1.553 2.671.148 5.214.785 7.541 1.822l.077-.222a22.133 22.133 0 00-9.418-2.093c-2.39 0-4.693.379-6.853 1.08-.188.06-.664.014-.798-.439a.656.656 0 01.436-.821 22.614 22.614 0 019.06-.603 11.177 11.177 0 00-.133-1.585 24.28 24.28 0 018.565 1.973l.079-.23a25.037 25.037 0 00-10.356-2.228c-2.74 0-5.375.438-7.843 1.25-.192.064-.692.015-.814-.447a.657.657 0 01.42-.792 25.394 25.394 0 019.662-.847l-.008-.001a10.308 10.308 0 00-.257-.762c-1.179-3.076-4.174-3.76-4.174-3.76s1.528-1.81.334-4.724l-1.593-3.777s2.686 2.136 6.46 2.21c6.495.13 9.352-5.353 10-8.857" />
            <path fill="#EDC157" d="M98.898 155.019s-1.115.58-1.637 1.941c0 0-1.441-.95-1.592-2.588 0 0-1.503.575-2.092 1.992 0 0-1.572-.629-1.564-2.466 0 0-1.043.615-1.576 1.873 0 .001-1.805-2.217-1.607-4.423.265-2.913 2.566-3.862 2.901-4.027a715.29 715.29 0 015.92-2.822c.977-.41 2.104-.704 3.332-.704 1.226 0 2.355.294 3.332.704.265.112 5.583 2.653 5.918 2.822.337.165 2.65 1.114 2.902 4.027.186 2.157-1.462 4.244-1.607 4.423 0 0-.418-1.12-1.576-1.873 0 0-.19 1.715-1.564 2.466 0 0-.457-1.292-2.091-1.992 0 0-.028 1.44-1.592 2.588 0 0-.384-1.231-1.909-1.941 0 0-.118 1.82-2.117 2.994 0 0-.495-2.42-1.781-2.994" />
            <path fill="#F8E3A2" d="M123.075 107.564a.332.332 0 00-.278-.224l-.115-.306h-.004c.08-.058.244-.217.207-.545-.048-.432-.382-.592-.664-.648-1.846-.367-2.826-1.087-3.432-1.518-.605-.43-1.032-.64-1.783-.64-2.316 0-6.68 3.398-8 3.398a.864.864 0 01-.725-.41c-.003-.01-.008-.017-.012-.027-1.567 2.196-.639 4.335 0 5.894l2.802 6.847.006.018s.629-.385.663-1.246c.04-1.015 1.07-3.32 3.637-3.317 2.769.005 5.033-1.086 5.852-4.171.125-.466.505-1.894 1.666-2.627.147-.091.264-.263.18-.478m-46.788 2.737c.674-3.208 2.813-2.944 2.944-2.96l.116-.307h.002c-.08-.059-.243-.218-.206-.545.047-.432.381-.592.663-.648 1.847-.368 2.828-1.087 3.432-1.519.605-.429 1.032-.638 1.783-.638 2.318 0 6.68 3.396 8 3.396a.864.864 0 00.726-.41c.004-.009.008-.017.01-.027 1.568 2.196.64 4.336.002 5.894-.146.36-2.692 6.576-2.803 6.848l-.005.018-2.595 6.31c-1.183 2.738.335 4.723.335 4.723-2.77.004-5.877-2.573-10.138-9.534-2.555-4.172-2.728-8.404-2.266-10.6" />
            <path fill="#69003D" d="M108.27 106.643c.472 1.325 1.673 1.342 2.407 1.125.661-.195 3.417-1.085 4.866-1.657 1.447-.574 1.827-.31 2.572.022 2.193.975 4.566.9 4.566.9l.115.307c-1.825.764-2.37 1.555-3.286 3.042-.873 1.42-2.606 2.563-4.678 2.563-1.605 0-2.148-.67-2.942-.399-.442.151-.899.536-1.055 1.453-.366 2.136 1.209 4.526.242 5.4 0 0-2.66-6.494-2.808-6.862-.638-1.559-1.567-3.698 0-5.894m-.519 25.152a1.87 1.87 0 00-3.123 1.97l-3.614 2.279-3.618-2.283a1.87 1.87 0 00-3.125-1.97l-1.628-1.027s-2.147-1.403-2.247-2.72c-.038-.522.317-.963.942-.09.262.365.562.823 1.399.823.576 0 1.523-.887 3.4-.887 2.775 0 3.026 1.254 4.873 1.254 1.846 0 2.098-1.254 4.873-1.254 1.876 0 2.823.887 3.4.887.837 0 1.137-.458 1.398-.822.625-.874.98-.433.942.09-.098 1.316-2.246 2.72-2.246 2.72l-1.627 1.03zm-13.992-25.152c-.473 1.325-1.674 1.342-2.408 1.125-.66-.195-3.416-1.085-4.865-1.659-1.448-.572-1.827-.308-2.572.024-2.194.975-4.567.9-4.567.9l-.115.307c1.826.764 2.37 1.555 3.286 3.042.871 1.42 2.608 2.563 4.68 2.563 1.604 0 2.148-.67 2.94-.399.442.151.9.536 1.057 1.453.364 2.136-2.292 6.522-1.153 7.619l3.718-9.08c.637-1.56 1.567-3.699-.001-5.895" />
            <path fill="#FFF" d="M115.042 108.026a.469.469 0 11-.938 0 .469.469 0 01.938 0" />
            <path fill="#FFF" d="M114.844 111.432a4.032 4.032 0 004.018-3.713 8.684 8.684 0 01-.888-.336 3.6 3.6 0 00-1.835-.261 1.7 1.7 0 11-3.12 1.024c-.78.304-1.267.468-1.955.645a4.025 4.025 0 003.78 2.64m-27.858-3.405a.469.469 0 10.938 0 .469.469 0 00-.938 0" />
            <path fill="#FFF" d="M87.184 111.432a4.031 4.031 0 01-4.019-3.713c.296-.094.594-.205.888-.336a3.604 3.604 0 011.835-.261 1.7 1.7 0 103.12 1.024c.782.304 1.267.468 1.956.645a4.025 4.025 0 01-3.78 2.64" />
        </g>
    </symbol>
    <symbol viewBox="0 0 80 80" id="logo-carlton">
        <g fill="none" fill-rule="evenodd">
            <path fill="#031E2F" d="M40.056 60.113c9.712.282 21.021-3.906 25.069-7.735l-3.148-5.78s-8.644 7.227-21.921 6.7v-2.74c3.04.032 9.207-.114 14.118-1.576v-4.77s-7.791 1.832-14.118 1.244v-1.148h3.778V38.47h-3.778v-1.637c2.572-.268 6.567-.102 12.669 1.313l.038-4.847s-7.5-1.558-12.707-1.224v-2.672a64.801 64.801 0 018.986.14v2.116h4.822l-.002-1.486c1.852.33 3.74.776 5.597 1.372l1.717-8.128s-2.916-.761-7.323-1.244l-.003-2.648V13h-5.781v2.118h-8.986V13h-3.907l.015 2.118v8.004C26.659 25.248 18.372 30.36 14.5 41.503c0 0 4.62 14.698 20.69 18.04v2.221h-4.292v4.98h14.48v-4.98h-5.322v-1.65zM35.19 44.251c-1.23-.605-2.182-1.458-2.69-2.633 0 0 .681-1.71 2.69-2.993v5.626zm4.865-24.783h8.986v2.356c-2.779-.098-5.844-.02-8.986.388v-2.744zm-16.37 22.093s.364-7.031 11.505-11.266v2.783c-2.435.893-6.296 3.102-8.385 8.425 0 0 1.711 5.634 8.385 8.167v2.84c-3.582-1.1-9.328-3.921-11.504-10.95z" />
            <path d="M0 0h80v80H0z" />
        </g>
    </symbol>
</svg>